<svg xmlns="http://www.w3.org/2000/svg" viewBox="0 0 153.6 66.6"><path fill="#FFF" d="M15.4 25.8h6.7V15.7h7.3V10h-7.3V5.7h8.1V0H15.4v25.8zM19 55.7L6.7 40H0v25.7h6.7V50h.1l12.3 15.8h6.7V40h-6.7L19 55.7zm53.6-35.6h-8v-4.4h7.5V10h-7.5V5.7h8V0H58v25.7h14.6v-5.6zM47.1 0h-6.7v25.7h6.7V0zm2.4 39.2c-7.4 0-14.2 5.5-14.2 13.2 0 8.3 6 14.2 14.2 14.2 8.3 0 14.2-5.9 14.2-14.2.1-7.8-6.8-13.2-14.2-13.2zm0 20.9c-4 0-7.3-3.2-7.3-7.7 0-3.5 3.3-6.8 7.3-6.8s7.3 3.2 7.3 6.8c0 4.5-3.3 7.7-7.3 7.7zm102.2-17.6c0-.6-.4-.9-1-.9h-1.1v3h.8v-1.1l.7 1.1h1l-.9-1.2c.2-.1.5-.5.5-.9zm-1.4.4l-.1-.7h.1c.3 0 .5 0 .5.4.1.3-.2.3-.5.3zm-21.1-30c0-7.2-5.9-12.9-13.1-12.9h-9.5v25.7h9.5c7.2.1 13.1-5.6 13.1-12.8zm-14.4 7.2h-1.5V5.7h1.6c4.3 0 7.3 2.6 7.3 7.2 0 5-3.4 7.2-7.4 7.2zM150.5 40c-1.7 0-3.1 1.4-3.1 3.1 0 1.7 1.4 3.1 3.1 3.1 1.7 0 3.1-1.4 3.1-3.1-.1-1.7-1.4-3.1-3.1-3.1zm0 5.5c-1.3 0-2.3-1-2.3-2.3 0-1.4 1-2.3 2.3-2.3s2.3 1 2.3 2.3c0 1.3-1 2.3-2.3 2.3zM134.8 50l-1.7-.5c-1.2-.4-3-1-3-2.5 0-1.4 1.6-2.2 2.9-2.2 1.6 0 3.2.7 4.4 1.7l2.7-5.2c-2.3-1.3-5.5-2.1-8.1-2.1-5.2 0-8.9 3.4-8.9 8.6 0 5 2.8 6.1 7 7.3 1.4.4 4.1 1.1 4.1 2.9 0 1.8-1.7 2.6-3.2 2.6-2.3 0-4.3-1.2-5.9-2.7l-2.9 5.4c2.6 1.8 5.8 2.9 9 2.9 2.6 0 5.3-.7 7.3-2.4s2.7-4.4 2.7-6.9c0-4-2.8-5.8-6.4-6.9zM89.9 0h-6.7v25.7h14.7V20h-8V0zM98 65.7h14.6V60h-8v-4.4h7.5V50h-7.5v-4.3h8V40H98v25.7zm-26.6-20h5.5v20.1h6.7V45.7h5.5V40H71.4v5.7z"/></svg>