<svg xmlns="http://www.w3.org/2000/svg" viewBox="0 0 478 283"><path d="M0 195V89c4.3-14.6 14.1-22.4 28.6-26.8C95.5 41.9 162.2 20.8 229 0h21c4.3 1.2 8.6 2.2 12.9 3.6 64.2 20.2 128.4 40.5 192.6 60.7 8.9 2.8 15.3 8.6 19.4 16.9 1.2 2.5 2.1 5.2 3.1 7.8v105c-4.1 14.1-13.4 22.1-27.7 26.4-67.2 20.5-134.2 41.7-201.3 62.6h-21c-4.3-1.2-8.6-2.2-12.9-3.6-22.8-7.1-45.7-14.3-68.5-21.5-41-13-82-26-123.1-38.9-11.1-3.5-18.8-10.3-22.4-21.5-.1-.8-.7-1.6-1.1-2.5zm60.6.6c25.6 0 50.7.6 75.8-.2 16.8-.5 27.3-11.5 27.7-27.5.5-18 .6-36 .4-53.9-.2-14.8-7.6-25-20-28.3-4.3-1.1-8.9-1.5-13.3-1.5-20.8-.1-41.6-.1-62.5 0-2.6 0-5.2.3-8.1.4v111zm130.5-1.4c.6.3.9.5 1.2.5 24.8.3 49.6 1.1 74.4.7 17.6-.3 28.2-12.5 28.2-30.3v-50.4c0-18.9-11.4-30.5-30.4-30.6-20.3-.1-40.6 0-61 0h-12.4v110.1zm233.8-73.7v-14c0-12.3-8.1-21.7-20.4-22-20.8-.5-41.7-.5-62.5 0-12.5.3-20.7 9.4-20.8 21.7-.1 22.3-.2 44.7-.1 67 0 12.4 9.5 21.8 21.8 21.9 20.2.1 40.3 0 60.5 0 2.1 0 4.3-.2 6.4-.8 13.5-4 20.2-20.8 13.9-35h-30.3c-.1 1.4-.1 2.4-.2 3.4-.2 7-.8 7.5-8 7.6-8.7 0-17.3-.1-26 0-4.3.1-6.1-2-6.1-6v-48.5c0-4.1 1.7-6.1 6-6 7.8.2 15.7.1 23.5 0 11.9-.2 10.3 1 10.8 9.9 0 .3.4.5.6.9 10-.1 20.1-.1 30.9-.1z"/><path d="M92.6 170.1v-59.9c1.5-.2 3-.5 4.4-.5 9.5 0 19-.1 28.5 0 5.6 0 6.6.9 6.6 6.3.1 15.8.1 31.7 0 47.5 0 5.6-1.1 6.6-6.9 6.6H92.6zm130.8-60.4h34.9c3 0 3.9 1.9 3.9 4.6 0 8.2.1 16.3.1 24.5 0 8.8-.1 17.7-.1 26.5 0 3.1-1.3 4.7-4.4 4.7h-34.3c-.1-20-.1-39.7-.1-60.3z"/></svg>