<svg xmlns="http://www.w3.org/2000/svg" width="38" height="38" viewBox="0 0 51 51" transform="rotate(180)"><circle class="svg-logo-coudal-background" cx="25.5" cy="25.5" r="21.898"/><path d="M25.5 0C11.416 0 0 11.417 0 25.5 0 39.584 11.416 51 25.5 51S51 39.584 51 25.5C51 11.417 39.584 0 25.5 0zm0 47.398c-12.095 0-21.899-9.805-21.899-21.898S13.405 3.602 25.5 3.602c12.094 0 21.898 9.805 21.898 21.898S37.594 47.398 25.5 47.398z"/><path d="M24.602 8.014a.897.897 0 111.248.828 4.623 4.623 0 004.621 4.556l.056-.001a.898.898 0 11-.005.775c-2.357.658-3.627 2.669-4.21 9.713a27.297 27.297 0 01-1.624 0c-.583-7.044-1.852-9.055-4.21-9.713a.899.899 0 11-.005-.775l.056.001a4.621 4.621 0 004.621-4.556.898.898 0 01-.548-.828m0 34.972a.898.898 0 101.248-.827 4.622 4.622 0 014.621-4.556h.056a.898.898 0 10-.005-.774c-2.357-.659-3.627-2.669-4.21-9.713a27.281 27.281 0 00-1.624 0c-.583 7.044-1.852 9.054-4.21 9.713a.898.898 0 10-.005.774h.056a4.62 4.62 0 014.621 4.556.897.897 0 00-.548.827M8.014 26.398a.898.898 0 11.827-1.248 4.621 4.621 0 004.556-4.621v-.056a.897.897 0 11.774.006c.659 2.357 2.669 3.626 9.714 4.21a31.029 31.029 0 010 1.623c-7.045.583-9.055 1.853-9.714 4.21a.898.898 0 11-.774.005v-.057a4.622 4.622 0 00-4.556-4.62.897.897 0 01-.827.548m34.972 0a.898.898 0 10-.828-1.248 4.621 4.621 0 01-4.555-4.621v-.056a.898.898 0 10-.774.006c-.658 2.357-2.67 3.626-9.713 4.21a27.164 27.164 0 000 1.623c7.043.583 9.055 1.853 9.713 4.21a.898.898 0 10.774.005v-.057a4.621 4.621 0 014.555-4.62.9.9 0 00.828.548"/></svg>