<svg xmlns="http://www.w3.org/2000/svg" viewBox="0 0 313.1 29.2"><path d="M0 28.4h7.1V17.6h7.8v-6.1H7.1V7h8.6V.9H0v27.5zm169.9-10.8L156.8.9h-7.1v27.3h7.1V11.5h.1L170 28.3h7.1V.9H170v16.7h-.1zm-109 4.7h-8.5v-4.7h8v-6.1h-8V7h8.5V.9H45.3v27.3h15.5v-5.9zM33.7.9h-7.1v27.3h7.1V.9zM202.3 0c-7.9 0-15.1 5.9-15.1 14 0 8.8 6.4 15.1 15.1 15.1 8.8 0 15.1-6.3 15.1-15.1.1-8.3-7.2-14-15.1-14zm0 22.2c-4.3 0-7.8-3.4-7.8-8.2 0-3.7 3.5-7.2 7.8-7.2s7.8 3.4 7.8 7.2c0 4.8-3.5 8.2-7.8 8.2zM311 3.5c0-.6-.4-1-1.1-1h-1.2v3.2h.9V4.6l.7 1.2h1.1l-1-1.3c.3-.1.6-.6.6-1zm-1.4.4l-.1-.7h.1c.3 0 .5 0 .5.4.1.3-.2.3-.5.3zM121.1 14.6c0-7.7-6.3-13.7-13.9-13.7H97v27.3h10.1c7.7.2 14-5.9 14-13.6zm-15.3 7.7h-1.6V7h1.7c4.6 0 7.8 2.8 7.8 7.7-.1 5.2-3.7 7.6-7.9 7.6zM309.8.9c-1.8 0-3.3 1.5-3.3 3.3 0 1.8 1.5 3.3 3.3 3.3 1.8 0 3.3-1.5 3.3-3.3-.1-1.9-1.5-3.3-3.3-3.3zm0 5.8c-1.4 0-2.4-1.1-2.4-2.4 0-1.5 1.1-2.4 2.4-2.4 1.4 0 2.4 1.1 2.4 2.4 0 1.3-1 2.4-2.4 2.4zm-16.7 4.8l-1.8-.5c-1.3-.4-3.2-1.1-3.2-2.7 0-1.5 1.7-2.3 3.1-2.3 1.7 0 3.4.7 4.7 1.8l2.9-5.5C296.4.9 292.9.1 290.2.1c-5.5 0-9.5 3.6-9.5 9.1 0 5.3 3 6.5 7.4 7.8 1.5.4 4.4 1.2 4.4 3.1s-1.8 2.8-3.4 2.8c-2.4 0-4.6-1.3-6.3-2.9l-3.1 5.7c2.8 1.9 6.2 3.1 9.6 3.1 2.8 0 5.6-.7 7.8-2.6 2.1-1.8 2.9-4.7 2.9-7.3-.1-4.3-3.1-6.2-6.9-7.4zM79.3.9h-7.1v27.3h15.6v-6.1h-8.5V.9zm174.6 27.3h15.5v-6.1h-8.5v-4.7h8v-6h-8V6.9h8.5v-6h-15.5v27.3zM225.6 6.9h5.9v21.4h7.1V6.9h5.9v-6h-18.8v6z"/></svg>